<svg xmlns="http://www.w3.org/2000/svg" width="326" height="326" fill="none" viewBox="0 0 326 326"><path fill="#00C9FF" d="M305.617 57.5132L313.672 29.3088L285.938 20.7075L287.755 15.1715L247.64 2.5425L245.781 8.24069L221.863 0.8125L199.654 57.5132H165.227L145.143 65.6172L147.614 13.3226L100.223 8.95431L100.352 6.17009L68.1528 3.21288L68.023 5.98628L11.8196 0.8125L10.268 55.4913L8.02984 55.3075L7.29459 84.5283L9.43547 84.6418L8.06769 132.584H0.8125V325.188L41.3594 304.914L81.9062 325.188H325.188V57.5132H305.617ZM91.8646 67.7203C90.8499 68.438 89.7755 69.0675 88.6532 69.6016C88.8803 66.2335 88.8533 64.2008 88.5451 63.0168C92.5566 59.5406 98.3629 57.1456 104.661 56.8483L113.56 56.4266C114.171 56.3942 114.776 56.3833 115.366 56.3833C125.427 56.3833 131.606 60.4759 129.27 65.8659C126.784 71.5803 125.913 81.2251 127.313 87.2801C128.368 91.8646 124.237 94.6326 117.479 94.6326C115.284 94.6326 112.819 94.3406 110.159 93.7243L101.488 91.7024C95.3894 90.2805 90.1346 86.9124 86.8097 82.8037C87.426 81.317 87.8693 78.4787 88.3451 73.3536C90.2427 73.9158 92.5133 74.2186 95.1786 73.7915C110.008 71.4397 99.8334 62.1302 91.8646 67.7203ZM21.6482 11.9007L67.5635 16.1338L66.1687 46.3602L66.0822 49.2687C64.634 48.7071 63.1492 48.2447 61.6382 47.8847L52.9666 45.8574C50.1933 45.1892 47.3529 44.8391 44.5004 44.814C38.6022 44.814 34.1204 46.5278 31.547 49.7661C29.9089 51.8313 29.2656 54.3884 29.5629 57.0753L20.3939 56.3185L21.6482 11.9007ZM19.5614 85.2149L28.5087 85.7177C28.6114 85.8907 28.6547 86.0745 28.7682 86.2475C31.2118 89.967 36.2288 92.3349 42.7758 92.9999C39.2239 100.617 33.8717 108.581 25.7029 114.711L18.5774 120.053L19.5614 85.2149ZM43.1867 132.59H18.2098L18.4909 122.918L28.2871 123.81L43.8679 125.221L43.1867 132.59ZM63.7034 132.59H61.9193C62.5411 131.46 63.1628 130.33 63.8061 129.097L63.7034 132.59ZM56.0319 132.59H48.2794L49.366 120.631L28.7358 118.761C38.4292 111.484 44.4842 101.974 48.3064 93.1675L48.6524 93.1567L57.5511 92.7404C62.9667 92.4932 68.2365 90.9069 72.8886 88.1234C69.6227 103.734 63.935 118.737 56.0319 132.59ZM66.7471 71.2073C69.2935 72.1101 71.5911 72.2182 73.559 72.0074C73.0941 77.1379 73.0184 80.0033 73.3536 81.5819C69.3475 85.0203 63.5628 87.3828 57.3132 87.6747L48.4145 88.091C47.8059 88.1213 47.1966 88.1357 46.5872 88.1343C36.537 88.1343 30.3685 84.0417 32.704 78.6571C35.1908 72.9427 36.0721 63.3033 34.6556 57.2375C33.596 52.6584 37.7372 49.8796 44.4896 49.8796C46.6845 49.8796 49.1552 50.177 51.8097 50.7933L60.4867 52.8206C66.6336 54.2479 71.9047 57.6646 75.2295 61.8058C74.7105 62.9141 74.3159 64.9036 73.9374 68.2555C72.9273 67.5307 71.983 66.7184 71.1154 65.8281C64.2819 58.8918 52.5936 66.2065 66.7471 71.2073ZM79.96 83.5714C75.1538 83.1335 73.559 87.5179 74.9863 71.8831C76.4135 56.2374 77.1866 60.8435 81.9982 61.2868C86.7989 61.7247 88.4046 57.3294 86.9773 72.9697C85.5392 88.6154 84.7662 84.0093 79.96 83.5714ZM102.688 132.59H93.427C88.9257 118.587 86.4533 104.011 86.0853 89.3074C90.1557 92.8958 95.0549 95.4151 100.342 96.6383L109.013 98.6548L109.354 98.7197C111.516 108.073 115.76 118.534 123.972 127.443L103.337 125.551L102.688 132.59ZM107.775 132.59L107.91 131.06L123.507 132.493L124.583 132.595L107.775 132.59ZM132.017 128.692L127.697 124.005C120.761 116.479 116.955 107.672 114.83 99.536C115.722 99.6063 116.625 99.7036 117.479 99.7036C123.378 99.7036 127.859 98.0007 130.433 94.7623C131.211 93.7892 131.709 92.6863 132.071 91.5348L133.768 91.6321L132.017 128.692ZM134.996 65.7091L134.596 65.6767C135.136 63.0871 134.682 60.5245 133.206 58.2701C130.308 53.8532 123.799 51.3177 115.366 51.3177C114.701 51.3177 114.014 51.3339 113.327 51.3663L104.423 51.788C102.308 51.9087 100.208 52.2273 98.152 52.7395L99.7469 19.0964L137.034 22.5348L134.996 65.7091ZM254.166 15.2202L274.936 21.7617L263.232 57.5132H240.369L254.166 15.2202ZM269.438 192.48V231.454C269.438 244.905 268.287 258.528 260.091 269.865C249.419 284.635 232.487 295.377 213.684 294.745C177.683 293.539 157.929 265.227 157.929 231.454V192.48C154.971 191.44 152.408 189.508 150.593 186.952C148.777 184.395 147.799 181.338 147.792 178.202C147.899 174.239 149.548 170.474 152.389 167.709C155.23 164.944 159.038 163.397 163.003 163.397C166.967 163.398 170.775 164.946 173.615 167.713C176.455 170.479 178.103 174.245 178.208 178.208C178.202 181.344 177.224 184.401 175.408 186.958C173.593 189.515 171.03 191.446 168.071 192.486V220.122C168.071 228.859 166.86 239.217 168.92 247.829C173.829 268.319 191.626 285.343 213.684 284.603C236.471 283.841 258.382 266.53 259.188 242.423C259.437 234.99 259.302 227.556 259.302 220.122V192.486C256.343 191.445 253.78 189.514 251.965 186.957C250.15 184.4 249.172 181.343 249.165 178.208C249.27 174.245 250.919 170.479 253.76 167.714C256.6 164.948 260.408 163.4 264.373 163.4C268.337 163.4 272.145 164.948 274.986 167.714C277.826 170.479 279.475 174.245 279.58 178.208C279.57 181.343 278.589 184.397 276.773 186.953C274.957 189.508 272.395 191.439 269.438 192.48ZM315.051 132.59H170.298V67.65H315.051V132.59Z"/></svg>