<svg xmlns="http://www.w3.org/2000/svg" width="120" height="120" fill="none" viewBox="0 0 120 120"><rect width="120" height="120" fill="#051C24" rx="17"/><path fill="#FF009D" d="M74.8505 86.6573C74.8505 90.2943 71.9323 93.2124 68.2953 93.2124C64.6584 93.2124 61.7115 90.2943 61.7115 86.6573C61.7115 83.0204 64.6728 80.0734 68.2953 80.0734C71.9467 80.0734 74.8505 83.0204 74.8505 86.6573ZM38.3517 80.0734C34.7147 80.0734 31.7966 83.0348 31.7966 86.6573C31.7966 90.2799 34.7147 93.2124 38.3517 93.2124C41.9886 93.2124 44.9356 90.2943 44.9356 86.6573C44.9356 83.0204 41.9886 80.0734 38.3517 80.0734ZM80.2843 41.2603C36.8423 41.2603 25.7733 39.4202 14 27C18.9451 34.432 21.662 48.4048 67.6341 47.7291C115.547 47.0104 86.3219 60.1062 77.8118 74.884C104.65 50.9204 123.726 41.2603 80.2843 41.2603Z"/></svg>